<svg width="35" height="26" viewBox="0 0 35 26" fill="none" xmlns="http://www.w3.org/2000/svg">
<path d="M29.8332 6.66667H25.2082V0.333336H0.541504V20.9167H3.62484C3.62484 23.545 5.69067 25.6667 8.24984 25.6667C10.809 25.6667 12.8748 23.545 12.8748 20.9167H22.1248C22.1248 23.545 24.1907 25.6667 26.7498 25.6667C29.309 25.6667 31.3748 23.545 31.3748 20.9167H34.4582V13L29.8332 6.66667ZM8.24984 23.2917C6.97025 23.2917 5.93734 22.2308 5.93734 20.9167C5.93734 19.6025 6.97025 18.5417 8.24984 18.5417C9.52942 18.5417 10.5623 19.6025 10.5623 20.9167C10.5623 22.2308 9.52942 23.2917 8.24984 23.2917ZM22.1248 5.08334H19.0415V16.1667H15.9582V5.08334H12.8748V16.1667H9.7915V5.08334H6.70817V16.1667H3.62484V3.5H22.1248V5.08334ZM26.7498 23.2917C25.4703 23.2917 24.4373 22.2308 24.4373 20.9167C24.4373 19.6025 25.4703 18.5417 26.7498 18.5417C28.0294 18.5417 29.0623 19.6025 29.0623 20.9167C29.0623 22.2308 28.0294 23.2917 26.7498 23.2917ZM25.2082 13V9.04167H29.0623L32.084 13H25.2082Z" fill="black"/>
</svg>
