<svg width="44" height="41" viewBox="0 0 44 41" fill="none" xmlns="http://www.w3.org/2000/svg">
<path d="M28.0472 33.6183C34.5795 33.6183 39.875 28.6839 39.875 22.597C39.875 16.5101 34.5795 11.5757 28.0472 11.5757C21.5149 11.5757 16.2195 16.5101 16.2195 22.597C16.2195 28.6839 21.5149 33.6183 28.0472 33.6183Z" stroke="black" stroke-linecap="round" stroke-linejoin="round"/>
<path d="M7.13258 16.4948H7.13167C5.47113 16.4948 4.125 17.7492 4.125 19.2965V30.8166C4.125 32.3639 5.47113 33.6183 7.13167 33.6183H7.13258C8.79312 33.6183 10.1392 32.3639 10.1392 30.8166V19.2965C10.1392 17.7492 8.79312 16.4948 7.13258 16.4948Z" stroke="black" stroke-linecap="round" stroke-linejoin="round"/>
<path d="M7.13167 12.985C8.7922 12.985 10.1383 11.7307 10.1383 10.1834C10.1383 8.63606 8.7922 7.38171 7.13167 7.38171C5.47113 7.38171 4.125 8.63606 4.125 10.1834C4.125 11.7307 5.47113 12.985 7.13167 12.985Z" stroke="black" stroke-linecap="round" stroke-linejoin="round"/>
</svg>
