<svg width="31" height="38" viewBox="0 0 31 38" fill="none" xmlns="http://www.w3.org/2000/svg">
<path d="M25.75 0H5.25C3.89077 0 2.5872 0.500445 1.62608 1.39124C0.664954 2.28204 0.125 3.49022 0.125 4.75V33.25C0.125 34.5098 0.664954 35.718 1.62608 36.6088C2.5872 37.4996 3.89077 38 5.25 38H25.75C27.1092 38 28.4128 37.4996 29.3739 36.6088C30.335 35.718 30.875 34.5098 30.875 33.25V4.75C30.875 3.49022 30.335 2.28204 29.3739 1.39124C28.4128 0.500445 27.1092 0 25.75 0V0ZM20.625 27.3125V13.0625C20.625 12.7476 20.76 12.4455 21.0003 12.2228C21.2405 12.0001 21.5664 11.875 21.9062 11.875H24.4688C24.8086 11.875 25.1345 12.0001 25.3747 12.2228C25.615 12.4455 25.75 12.7476 25.75 13.0625V27.3125C25.75 27.6274 25.615 27.9295 25.3747 28.1522C25.1345 28.3749 24.8086 28.5 24.4688 28.5H21.9062C21.5664 28.5 21.2405 28.3749 21.0003 28.1522C20.76 27.9295 20.625 27.6274 20.625 27.3125ZM14.2188 28.5C13.8789 28.5 13.5531 28.3749 13.3128 28.1522C13.0725 27.9295 12.9375 27.6274 12.9375 27.3125V17.8125C12.9375 17.4976 13.0725 17.1955 13.3128 16.9728C13.5531 16.7501 13.8789 16.625 14.2188 16.625H16.7812C17.1211 16.625 17.447 16.7501 17.6872 16.9728C17.9275 17.1955 18.0625 17.4976 18.0625 17.8125V27.3125C18.0625 27.6274 17.9275 27.9295 17.6872 28.1522C17.447 28.3749 17.1211 28.5 16.7812 28.5H14.2188ZM6.53125 28.5C6.19144 28.5 5.86555 28.3749 5.62527 28.1522C5.38499 27.9295 5.25 27.6274 5.25 27.3125V22.5625C5.25 22.2476 5.38499 21.9455 5.62527 21.7228C5.86555 21.5001 6.19144 21.375 6.53125 21.375H9.09375C9.43356 21.375 9.75945 21.5001 9.99973 21.7228C10.24 21.9455 10.375 22.2476 10.375 22.5625V27.3125C10.375 27.6274 10.24 27.9295 9.99973 28.1522C9.75945 28.3749 9.43356 28.5 9.09375 28.5H6.53125Z" fill="black"/>
</svg>
