<svg width="28" height="14" viewBox="0 0 28 14" fill="none" xmlns="http://www.w3.org/2000/svg">
<path d="M9.59651 14C9.13037 14 8.68182 13.8341 8.34893 13.5386L5.88697 11.3427L2.88997 13.5543C2.71149 13.6862 2.50559 13.7855 2.28404 13.8464C2.06249 13.9074 1.82965 13.9287 1.59883 13.9093C1.36801 13.8899 1.14375 13.8301 0.938873 13.7333C0.734 13.6365 0.552538 13.5047 0.404868 13.3453C0.106681 13.0237 -0.0361336 12.6097 0.00780521 12.1942C0.051744 11.7788 0.278841 11.3959 0.639197 11.1297L4.87523 8.00464C5.21353 7.75448 5.64444 7.62605 6.08344 7.64455C6.52244 7.66305 6.93784 7.82714 7.24819 8.10464L9.2958 9.93194L13.8109 3.65901C13.98 3.42165 14.218 3.22954 14.4996 3.10306C14.7812 2.97658 15.096 2.92045 15.4105 2.94064C16.0501 2.97741 16.6173 3.32001 16.8914 3.83838L19.556 8.86336L24.7012 0.795408C24.9332 0.433022 25.3168 0.167367 25.7679 0.0565988C26.2191 -0.0541696 26.701 -0.00102722 27.1083 0.204391C27.515 0.411424 27.8129 0.753805 27.9369 1.15646C28.0609 1.55911 28.0007 1.98916 27.7696 2.35232L20.9454 13.0525C20.7843 13.3017 20.5503 13.5072 20.2684 13.6469C19.9864 13.7866 19.6672 13.8554 19.3448 13.8457C19.0217 13.8355 18.7081 13.746 18.4384 13.5871C18.1686 13.4283 17.9531 13.2062 17.8156 12.9453L15.0605 7.74769L11.0809 13.2749C10.9214 13.4969 10.7018 13.6797 10.4425 13.8064C10.1831 13.9331 9.89223 13.9996 9.59651 14Z" fill="black"/>
</svg>
