<svg width="43" height="29" viewBox="0 0 43 29" fill="none" xmlns="http://www.w3.org/2000/svg">
<path d="M30.9062 0C31.2626 0 31.6044 0.152768 31.8564 0.424695C32.1084 0.696623 32.25 1.06544 32.25 1.45V2.9H34.9913C35.5952 2.90058 36.1914 3.0476 36.7356 3.3302C37.2799 3.61281 37.7583 4.02376 38.1356 4.5327L42.1158 9.8977C42.6885 10.6696 43.0004 11.6291 43 12.6179V18.85C43 20.0037 42.5753 21.1101 41.8193 21.9259C41.0633 22.7417 40.0379 23.2 38.9688 23.2H37.625C37.625 24.7383 37.0587 26.2135 36.0507 27.3012C35.0427 28.3889 33.6755 29 32.25 29C30.8245 29 29.4573 28.3889 28.4493 27.3012C27.4413 26.2135 26.875 24.7383 26.875 23.2H13.4375C13.4375 24.7383 12.8712 26.2135 11.8632 27.3012C10.8552 28.3889 9.48804 29 8.0625 29C6.63696 29 5.26981 28.3889 4.2618 27.3012C3.25379 26.2135 2.6875 24.7383 2.6875 23.2C1.97473 23.2 1.29115 22.8945 0.787151 22.3506C0.283147 21.8068 0 21.0691 0 20.3V17.4H29.5625V1.45C29.5625 1.06544 29.7041 0.696623 29.9561 0.424695C30.2081 0.152768 30.5499 0 30.9062 0ZM8.0625 20.3C7.34973 20.3 6.66615 20.6055 6.16215 21.1494C5.65815 21.6932 5.375 22.4309 5.375 23.2C5.375 23.9691 5.65815 24.7068 6.16215 25.2506C6.66615 25.7945 7.34973 26.1 8.0625 26.1C8.77527 26.1 9.45885 25.7945 9.96285 25.2506C10.4669 24.7068 10.75 23.9691 10.75 23.2C10.75 22.4309 10.4669 21.6932 9.96285 21.1494C9.45885 20.6055 8.77527 20.3 8.0625 20.3ZM32.25 20.3C31.5372 20.3 30.8537 20.6055 30.3497 21.1494C29.8456 21.6932 29.5625 22.4309 29.5625 23.2C29.5625 23.9691 29.8456 24.7068 30.3497 25.2506C30.8537 25.7945 31.5372 26.1 32.25 26.1C32.9628 26.1 33.6463 25.7945 34.1503 25.2506C34.6544 24.7068 34.9375 23.9691 34.9375 23.2C34.9375 22.4309 34.6544 21.6932 34.1503 21.1494C33.6463 20.6055 32.9628 20.3 32.25 20.3ZM36.9048 20.3H38.9688C39.3251 20.3 39.6669 20.1472 39.9189 19.8753C40.1709 19.6034 40.3125 19.2346 40.3125 18.85V12.615C40.312 12.2859 40.2077 11.9669 40.0169 11.7102L36.0394 6.3452C35.9137 6.17538 35.7543 6.03821 35.5728 5.94384C35.3914 5.84947 35.1927 5.80031 34.9913 5.8H32.25V17.4C33.1935 17.4 34.1203 17.668 34.9374 18.1771C35.7545 18.6861 36.433 19.4183 36.9048 20.3Z" fill="#271E4A"/>
</svg>
