<svg width="16" height="16" viewBox="0 0 16 16" fill="none" xmlns="http://www.w3.org/2000/svg">
<path d="M4.9142 1.714C4.97582 1.50757 5.10245 1.32655 5.27525 1.1979C5.44804 1.06924 5.65777 0.999834 5.8732 1H10.2792C10.4407 1.00006 10.5999 1.03925 10.7429 1.11423C10.886 1.1892 11.0088 1.29772 11.1008 1.43051C11.1928 1.56329 11.2513 1.71638 11.2712 1.87669C11.2911 2.03699 11.2719 2.19974 11.2152 2.351L10.2222 5H12.2522C12.3932 5.00016 12.5314 5.04009 12.6507 5.1152C12.7701 5.1903 12.8659 5.29755 12.9271 5.42462C12.9883 5.55169 13.0124 5.69344 12.9967 5.8336C12.9809 5.97376 12.926 6.10664 12.8382 6.217L6.2312 14.517C5.3772 15.59 3.6692 14.705 4.0532 13.389L5.3332 9H3.7502C3.63332 9.00018 3.51801 8.97305 3.41347 8.92075C3.30894 8.86846 3.21807 8.79245 3.14813 8.6988C3.07818 8.60515 3.03109 8.49646 3.01062 8.38138C2.99014 8.2663 2.99685 8.14803 3.0302 8.036L4.9142 1.714ZM10.2802 2H5.8732L4.0852 8H6.0002C6.07783 8 6.15438 8.01807 6.22381 8.05279C6.29324 8.0875 6.35363 8.1379 6.4002 8.2C6.44678 8.2621 6.47825 8.33419 6.49214 8.41056C6.50602 8.48693 6.50194 8.56548 6.4802 8.64L5.0132 13.669C4.99285 13.7256 4.995 13.7879 5.0192 13.843C5.045 13.8942 5.08677 13.9356 5.1382 13.961C5.1952 13.991 5.2542 13.998 5.3022 13.99C5.36161 13.9784 5.41426 13.9444 5.4492 13.895L11.7332 6H9.5002C9.41937 6 9.33975 5.9804 9.26815 5.94289C9.19655 5.90538 9.13512 5.85106 9.08911 5.78461C9.0431 5.71815 9.01389 5.64153 9.00398 5.56131C8.99406 5.48108 9.00375 5.39966 9.0322 5.324L10.2792 2H10.2802Z" fill="#BDBDBD"/>
</svg>
