<svg width="17" height="18" viewBox="0 0 17 18" fill="none" xmlns="http://www.w3.org/2000/svg">
<path d="M14.1665 4.74996H12.0415V3.33329C12.0415 2.54704 11.4111 1.91663 10.6248 1.91663H6.37484C5.58859 1.91663 4.95817 2.54704 4.95817 3.33329V4.74996H2.83317C2.04692 4.74996 1.4165 5.38038 1.4165 6.16663V13.9583C1.4165 14.7445 2.04692 15.375 2.83317 15.375H14.1665C14.9528 15.375 15.5832 14.7445 15.5832 13.9583V6.16663C15.5832 5.38038 14.9528 4.74996 14.1665 4.74996ZM6.37484 3.33329H10.6248V4.74996H6.37484V3.33329ZM14.1665 13.9583H2.83317V12.5416H14.1665V13.9583ZM14.1665 10.4166H2.83317V6.16663H4.95817V7.58329H6.37484V6.16663H10.6248V7.58329H12.0415V6.16663H14.1665V10.4166Z" fill="#BDBDBD"/>
</svg>
