<svg width="17" height="18" viewBox="0 0 17 18" fill="none" xmlns="http://www.w3.org/2000/svg">
<path d="M14.1668 6.16671H12.0418V3.33337H0.708496V12.5417H2.12516C2.12516 13.7175 3.07433 14.6667 4.25016 14.6667C5.426 14.6667 6.37516 13.7175 6.37516 12.5417H10.6252C10.6252 13.7175 11.5743 14.6667 12.7502 14.6667C13.926 14.6667 14.8752 13.7175 14.8752 12.5417H16.2918V9.00004L14.1668 6.16671ZM4.25016 13.6042C3.66225 13.6042 3.18766 13.1296 3.18766 12.5417C3.18766 11.9538 3.66225 11.4792 4.25016 11.4792C4.83808 11.4792 5.31266 11.9538 5.31266 12.5417C5.31266 13.1296 4.83808 13.6042 4.25016 13.6042ZM10.6252 5.45837H9.2085V10.4167H7.79183V5.45837H6.37516V10.4167H4.9585V5.45837H3.54183V10.4167H2.12516V4.75004H10.6252V5.45837ZM12.7502 13.6042C12.1622 13.6042 11.6877 13.1296 11.6877 12.5417C11.6877 11.9538 12.1622 11.4792 12.7502 11.4792C13.3381 11.4792 13.8127 11.9538 13.8127 12.5417C13.8127 13.1296 13.3381 13.6042 12.7502 13.6042ZM12.0418 9.00004V7.22921H13.8127L15.201 9.00004H12.0418Z" fill="#BDBDBD"/>
</svg>
