<svg width="13" height="17" viewBox="0 0 13 17" fill="none" xmlns="http://www.w3.org/2000/svg">
<path d="M4.12467 12.4583V10.875V12.4583ZM6.49967 12.4583V9.29167V12.4583ZM8.87467 12.4583V7.70833V12.4583ZM10.458 15.625H2.54134C2.12141 15.625 1.71869 15.4582 1.42176 15.1613C1.12482 14.8643 0.958008 14.4616 0.958008 14.0417V2.95833C0.958008 2.53841 1.12482 2.13568 1.42176 1.83875C1.71869 1.54181 2.12141 1.375 2.54134 1.375H6.96359C7.17354 1.37504 7.37487 1.45848 7.5233 1.60696L11.8094 5.89304C11.9579 6.04147 12.0413 6.2428 12.0413 6.45275V14.0417C12.0413 14.4616 11.8745 14.8643 11.5776 15.1613C11.2807 15.4582 10.8779 15.625 10.458 15.625Z" stroke="white" stroke-linecap="round" stroke-linejoin="round"/>
</svg>
