<svg width="12" height="14" viewBox="0 0 12 14" fill="none" xmlns="http://www.w3.org/2000/svg">
<path d="M11.3337 4.33301L7.33366 0.333008H2.00033C1.6467 0.333008 1.30756 0.473484 1.05752 0.723532C0.807468 0.973581 0.666992 1.31272 0.666992 1.66634V12.333C0.666992 12.6866 0.807468 13.0258 1.05752 13.2758C1.30756 13.5259 1.6467 13.6663 2.00033 13.6663H10.0003C10.3539 13.6663 10.6931 13.5259 10.9431 13.2758C11.1932 13.0258 11.3337 12.6866 11.3337 12.333V4.33301ZM4.00033 11.6663H2.66699V5.66634H4.00033V11.6663ZM6.66699 11.6663H5.33366V7.66634H6.66699V11.6663ZM9.33366 11.6663H8.00033V9.66634H9.33366V11.6663ZM7.33366 4.99967H6.66699V1.66634L10.0003 4.99967H7.33366Z" fill="white"/>
</svg>
