<svg width="33" height="31" viewBox="0 0 33 31" fill="none" xmlns="http://www.w3.org/2000/svg">
<path d="M33 10.3333V3.44444H25.9286V5.74074H14.1429V2.2963C14.1422 1.68747 13.8937 1.10375 13.4518 0.673241C13.0099 0.242734 12.4107 0.000607918 11.7857 0H2.35714C1.73218 0.000607918 1.133 0.242734 0.69108 0.673241C0.249166 1.10375 0.000624026 1.68747 0 2.2963V11.4815C0.000624026 12.0903 0.249166 12.674 0.69108 13.1045C1.133 13.535 1.73218 13.7772 2.35714 13.7778H11.7857C12.4107 13.7772 13.0099 13.535 13.4518 13.1045C13.8937 12.674 14.1422 12.0903 14.1429 11.4815V8.03704C15.0803 8.03795 15.9791 8.40114 16.642 9.0469C17.3048 9.69266 17.6776 10.5682 17.6786 11.4815V21.8148H10.6071V19.5185H3.53571V26.4074H10.6071V24.1111H17.6786V26.4074C17.6792 27.0162 17.9277 27.6 18.3697 28.0305C18.8116 28.461 19.4108 28.7031 20.0357 28.7037H25.9286V31H33V24.1111H25.9286V26.4074H20.0357V18.3704H25.9286V20.6667H33V13.7778H25.9286V16.0741H20.0357V11.4815C20.0314 10.2354 19.6069 9.0252 18.8277 8.03704H25.9286V10.3333H33ZM2.35714 11.4815V2.2963H11.7857V11.4815H2.35714ZM8.25 24.1111H5.89286V21.8148H8.25V24.1111ZM28.2857 26.4074H30.6429V28.7037H28.2857V26.4074ZM28.2857 16.0741H30.6429V18.3704H28.2857V16.0741ZM28.2857 5.74074H30.6429V8.03704H28.2857V5.74074Z" fill="black"/>
</svg>
