<svg width="52" height="54" viewBox="0 0 52 54" fill="none" xmlns="http://www.w3.org/2000/svg">
<path d="M50.75 3.2V50.8C50.75 51.2509 50.5762 51.6833 50.2667 52.0021C49.9573 52.3209 49.5376 52.5 49.1 52.5H2.9C2.46239 52.5 2.04271 52.3209 1.73327 52.0021C1.42384 51.6833 1.25 51.2509 1.25 50.8V3.2C1.25 2.74913 1.42384 2.31673 1.73327 1.99792C2.04271 1.67911 2.46239 1.5 2.9 1.5H49.1C49.5376 1.5 49.9573 1.67911 50.2667 1.99792C50.5762 2.31673 50.75 2.74913 50.75 3.2V3.2Z" stroke="black" stroke-width="1.5" stroke-linecap="round" stroke-linejoin="round"/>
<path d="M31.5 21.3333V20.7667C31.5 20.0969 31.372 19.4337 31.1232 18.815C30.8744 18.1962 30.5098 17.634 30.0502 17.1604C29.5905 16.6868 29.0448 16.3112 28.4443 16.0549C27.8437 15.7986 27.2 15.6667 26.55 15.6667H25.45C24.1372 15.6667 22.8781 16.204 21.9498 17.1604C21.0215 18.1169 20.5 19.4141 20.5 20.7667V33.2333C20.5 34.5859 21.0215 35.8831 21.9498 36.8396C22.8781 37.796 24.1372 38.3333 25.45 38.3333H26.55C27.8628 38.3333 29.1219 37.796 30.0502 36.8396C30.9785 35.8831 31.5 34.5859 31.5 33.2333V32.6667" stroke="black" stroke-width="1.5" stroke-linecap="round" stroke-linejoin="round"/>
</svg>
