<svg id="Layer_1" data-name="Layer 1" xmlns="http://www.w3.org/2000/svg" viewBox="0 0 1080 1080"><defs><style>.cls-1{fill:#f47521;}.cls-2{font-size:79.24px;fill:#231f20;font-family:Helvetica-Bold, Helvetica;font-weight:700;}.cls-3{letter-spacing:-0.04em;}</style></defs><g id="Layer_2" data-name="Layer 2"><g id="Layer_1-2" data-name="Layer 1-2"><path class="cls-1" d="M266.7,370a60.3,60.3,0,1,0,53.71,66.33,61.86,61.86,0,0,0,0-12.47A60.41,60.41,0,0,0,266.7,370Zm-9.81,94.34a34.43,34.43,0,1,1,6.92,0A32,32,0,0,1,256.89,464.32Z"/><path class="cls-1" d="M692.72,370a60.3,60.3,0,1,0,53.87,66.1,61.06,61.06,0,0,0,0-12.24A60.3,60.3,0,0,0,692.72,370Zm-9.59,94.34a34.45,34.45,0,1,1,6.86,0,32.39,32.39,0,0,1-7,0Z"/><path class="cls-1" d="M825.72,370a60.31,60.31,0,1,0,53.93,53.86A60.29,60.29,0,0,0,825.72,370ZM816,464.32a34.49,34.49,0,1,1,6.78,0,33.4,33.4,0,0,1-6.78,0Z"/><path class="cls-1" d="M459,460c-.63,3.2-2,5.91-3,5.91s-2.49-2.59-3.13-5.91L436.61,379.8c-.63-3.19-2.36-5.91-3.8-5.91H407.3c-1.09,0-2.43,2.62-2.95,5.91L390.62,460c-.57,3.22-1.89,5.91-3,5.91s-2.55-2.61-3.21-5.77L366.09,375.6a7.62,7.62,0,0,0-7.15-5.91H339a4.41,4.41,0,0,0-4.78,4,4.31,4.31,0,0,0,.26,1.92l26,109.11a7.84,7.84,0,0,0,7.27,5.74h33.93a7.49,7.49,0,0,0,7-6l10.27-52.72c.62-3.19,1.69-3.19,2.33,0l11.09,52.7a7.59,7.59,0,0,0,7.1,6h34.93a7.62,7.62,0,0,0,7.14-5.91l22.75-108.9a4.63,4.63,0,0,0-3.11-5.73,4.53,4.53,0,0,0-1.59-.18H481.83a7.4,7.4,0,0,0-7,5.91Z"/><path class="cls-1" d="M592.82,422.74A81.53,81.53,0,0,0,576,418.13c-3.22-.54-7.48-1.1-9.53-1.24S560.2,416,557,415.4a8.94,8.94,0,0,1-4.48-2.55,10.53,10.53,0,0,1-3-7.48,11.16,11.16,0,0,1,1.67-6A10.73,10.73,0,0,1,556,395.2a21.61,21.61,0,0,1,16.4.3,13.06,13.06,0,0,1,5.39,4.95l1.26,2a6.38,6.38,0,0,0,6.56,4.78h16.28a5.1,5.1,0,0,0,5.26-4.94v0a3.78,3.78,0,0,0,0-.95,41.15,41.15,0,0,0-4.42-13.91,34.36,34.36,0,0,0-14.93-13.18A54.5,54.5,0,0,0,564,369.57a55.66,55.66,0,0,0-22.51,4.22A33.48,33.48,0,0,0,526.65,386a34.39,34.39,0,0,0-5.22,19.24,32.5,32.5,0,0,0,10.49,25.43c7,6.33,22.35,9.79,22.35,9.79a88.76,88.76,0,0,0,9.45,1.6c2,.18,6.29.71,9.53,1.19a26.25,26.25,0,0,1,8.36,2.65,8.71,8.71,0,0,1,4.22,7.72,10.31,10.31,0,0,1-2.27,6.71,14.27,14.27,0,0,1-6.56,4.39,29.8,29.8,0,0,1-10.39,1.56,30.41,30.41,0,0,1-11.56-1.87,14.48,14.48,0,0,1-6.81-5.22l-1.51-2.25a6.7,6.7,0,0,0-6.77-5.19H523.7a5.09,5.09,0,0,0-5.23,4.91,5.79,5.79,0,0,0,0,1,39.72,39.72,0,0,0,4.77,14.07,37.43,37.43,0,0,0,16.4,13.67,74,74,0,0,0,52.26.48A36.62,36.62,0,0,0,608.3,473,33.1,33.1,0,0,0,614,453.65,30.78,30.78,0,0,0,608.3,435,38.5,38.5,0,0,0,592.82,422.74Z"/><path class="cls-1" d="M128.86,375.6a5.92,5.92,0,0,0-5.91-5.91H104a5.92,5.92,0,0,0-5.91,5.91h0V484.42a5.91,5.91,0,0,0,5.91,5.91h77.83a5.91,5.91,0,0,0,5.91-5.91h0V469.63a6,6,0,0,0-5.91-6h-47.1a5.9,5.9,0,0,1-5.9-5.91Z"/><path class="cls-1" d="M960.27,369.69H898.14a5.92,5.92,0,0,0-5.91,5.91h0v14.94a5.92,5.92,0,0,0,5.91,5.91h47.08a6,6,0,0,1,5.9,5.93v82a5.91,5.91,0,0,0,5.91,5.91H976a5.91,5.91,0,0,0,5.91-5.91h0V375.6a5.9,5.9,0,0,0-5.87-5.91H960.27Z"/></g></g><text class="cls-2" transform="translate(227.6 577.01) scale(0.95 1)">Climate<tspan class="cls-3" x="286.23" y="0"> </tspan><tspan x="305.35" y="0">Analytics</tspan></text></svg>