<svg width="15" height="16" viewBox="0 0 15 16" fill="none" xmlns="http://www.w3.org/2000/svg">
<path d="M7.5 0.583374C6.71712 0.583374 5.95181 0.815526 5.30087 1.25047C4.64992 1.68542 4.14257 2.30363 3.84298 3.02692C3.54338 3.75021 3.46499 4.5461 3.61773 5.31394C3.77046 6.08178 4.14745 6.78709 4.70104 7.34067C5.25462 7.89425 5.95993 8.27125 6.72777 8.42398C7.49561 8.57672 8.2915 8.49833 9.01479 8.19873C9.73808 7.89913 10.3563 7.39178 10.7912 6.74084C11.2262 6.0899 11.4583 5.32459 11.4583 4.54171C11.4583 3.49189 11.0413 2.48507 10.299 1.74274C9.55663 1.00041 8.54982 0.583374 7.5 0.583374ZM7.5 6.91671C7.03027 6.91671 6.57109 6.77742 6.18052 6.51645C5.78995 6.25548 5.48554 5.88456 5.30579 5.45058C5.12603 5.01661 5.07899 4.53907 5.17063 4.07837C5.26227 3.61766 5.48847 3.19448 5.82062 2.86233C6.15277 2.53018 6.57596 2.30398 7.03666 2.21234C7.49737 2.1207 7.9749 2.16774 8.40887 2.34749C8.84285 2.52725 9.21377 2.83166 9.47474 3.22223C9.73571 3.61279 9.875 4.07198 9.875 4.54171C9.875 5.1716 9.62478 5.77569 9.17938 6.22109C8.73398 6.66649 8.12989 6.91671 7.5 6.91671ZM14.625 15.625V14.8334C14.625 13.3636 14.0411 11.9541 13.0019 10.9148C11.9626 9.87556 10.5531 9.29171 9.08333 9.29171H5.91667C4.44693 9.29171 3.03738 9.87556 1.99812 10.9148C0.958852 11.9541 0.375 13.3636 0.375 14.8334V15.625H1.95833V14.8334C1.95833 13.7836 2.37537 12.7767 3.1177 12.0344C3.86003 11.2921 4.86685 10.875 5.91667 10.875H9.08333C10.1331 10.875 11.14 11.2921 11.8823 12.0344C12.6246 12.7767 13.0417 13.7836 13.0417 14.8334V15.625H14.625Z" fill="#4D7CFE"/>
</svg>
