<svg width="16" height="17" viewBox="0 0 16 17" fill="none" xmlns="http://www.w3.org/2000/svg">
<path d="M10.5 12.8333C10.5 13.4963 10.2366 14.1322 9.76774 14.6011C9.2989 15.0699 8.66301 15.3333 7.99997 15.3333C7.33693 15.3333 6.70104 15.0699 6.2322 14.6011C5.76336 14.1322 5.49997 13.4963 5.49997 12.8333M8.6008 1.16914L7.37914 1.16664C4.59247 1.15997 2.1733 3.42414 2.15414 6.16664V9.32497C2.15414 9.98331 2.0708 10.6258 1.71164 11.1733L1.47247 11.5383C1.1083 12.0916 1.49997 12.8333 2.15414 12.8333H13.8458C14.5 12.8333 14.8908 12.0916 14.5275 11.5383L14.2883 11.1733C13.93 10.6258 13.8458 9.98247 13.8458 9.32414V6.16747C13.8125 3.42414 11.3875 1.17581 8.6008 1.16914V1.16914Z" stroke="#4D7CFE" stroke-width="1.5" stroke-linecap="round" stroke-linejoin="round"/>
</svg>
