<svg width="17" height="16" viewBox="0 0 17 16" fill="none" xmlns="http://www.w3.org/2000/svg">
<path d="M8.16699 12.1666L8.16699 13C8.16699 13.442 8.34259 13.8659 8.65515 14.1785C8.96771 14.491 9.39163 14.6666 9.83366 14.6666L14.0003 14.6666C14.4424 14.6666 14.8663 14.491 15.1788 14.1785C15.4914 13.8659 15.667 13.442 15.667 13L15.667 2.99996C15.667 2.55793 15.4914 2.13401 15.1788 1.82145C14.8663 1.50889 14.4424 1.33329 14.0003 1.33329L9.83366 1.33329C9.39163 1.33329 8.96771 1.50889 8.65515 1.82145C8.34259 2.13401 8.16699 2.55793 8.16699 2.99996L8.16699 3.83329M2.33366 7.99996L10.2503 7.99996L2.33366 7.99996ZM4.00032 5.49996L1.50032 7.99996L4.00032 10.5L4.00032 5.49996Z" stroke="#4D7CFE" stroke-width="1.5" stroke-linecap="round" stroke-linejoin="round"/>
</svg>
