<svg width="37" height="64" viewBox="0 0 37 64" fill="none" xmlns="http://www.w3.org/2000/svg">
<path d="M36.3003 16.4C36.3014 19.5086 35.243 22.5466 33.2609 25.1245C31.2788 27.7025 28.4633 29.7028 25.1753 30.869V26.5322C27.7204 25.2444 29.7095 23.2566 30.8341 20.8771C31.9588 18.4976 32.1561 15.8593 31.3954 13.3715C30.6348 10.8837 28.9588 8.68536 26.6273 7.11746C24.2958 5.54955 21.4391 4.69969 18.5003 4.69969C15.5615 4.69969 12.7049 5.54955 10.3734 7.11746C8.04186 8.68536 6.36583 10.8837 5.60522 13.3715C4.8446 15.8593 5.04191 18.4976 6.16654 20.8771C7.29117 23.2566 9.28026 25.2444 11.8253 26.5322V30.8612C8.0009 29.5001 4.83491 27.0167 2.86893 23.8358C0.902942 20.6549 0.259125 16.9742 1.0476 13.4232C1.83608 9.87227 4.00786 6.67174 7.19145 4.36911C10.375 2.06649 14.3726 0.804839 18.5003 0.799988C23.2212 0.799988 27.7487 2.44355 31.0868 5.36912C34.425 8.29469 36.3003 12.2626 36.3003 16.4ZM16.925 62.6306C17.1317 62.8122 17.3772 62.9563 17.6476 63.0546C17.9179 63.1529 18.2077 63.2035 18.5003 63.2035C18.793 63.2035 19.0828 63.1529 19.3531 63.0546C19.6234 62.9563 19.8689 62.8122 20.0756 62.6306L33.4256 50.9306C33.8428 50.5644 34.077 50.068 34.0766 49.5506C34.0762 49.0331 33.8412 48.537 33.4234 48.1713C33.0056 47.8057 32.4392 47.6005 31.8488 47.6009C31.2583 47.6012 30.6922 47.8071 30.275 48.1733L20.7253 56.5427V14.45C20.7253 13.9328 20.4909 13.4368 20.0736 13.0711C19.6564 12.7054 19.0904 12.5 18.5003 12.5C17.9102 12.5 17.3443 12.7054 16.927 13.0711C16.5097 13.4368 16.2753 13.9328 16.2753 14.45V56.5427L6.72563 48.1733C6.51905 47.992 6.27375 47.8481 6.00373 47.7499C5.73371 47.6517 5.44426 47.601 5.1519 47.6009C4.85955 47.6007 4.57002 47.651 4.29984 47.7488C4.02966 47.8467 3.78413 47.9903 3.57726 48.1713C3.15946 48.537 2.92451 49.0331 2.92409 49.5506C2.92389 49.8068 2.98127 50.0605 3.09295 50.2973C3.20464 50.5341 3.36845 50.7493 3.57503 50.9306L16.925 62.6306Z" fill="#271E4A"/>
</svg>
