<svg width="25" height="33" viewBox="0 0 25 33" fill="none" xmlns="http://www.w3.org/2000/svg">
<path opacity="0.8" d="M15.765 14.5H23.2004C23.3997 14.5 23.5942 14.5579 23.7578 14.666C23.9213 14.7741 24.046 14.9272 24.1151 15.1045C24.1841 15.2819 24.1942 15.4751 24.144 15.6581C24.0938 15.8411 23.9856 16.0051 23.8341 16.128L14.166 23.9739L4.36924 32.7484C3.60874 33.4292 2.40559 32.6503 2.79559 31.7309L8.52469 18.2H3.70039C3.53896 18.2001 3.38002 18.1622 3.23784 18.0897C3.09566 18.0172 2.97468 17.9123 2.88576 17.7845C2.79685 17.6567 2.74277 17.5099 2.72839 17.3574C2.71402 17.2048 2.73978 17.0513 2.80339 16.9106L8.65339 3.96055C8.72862 3.79405 8.85373 3.65217 9.01319 3.55252C9.17265 3.45287 9.35944 3.39984 9.55039 3.4H19.3004C19.4618 3.39986 19.6207 3.43776 19.7629 3.51027C19.9051 3.58279 20.0261 3.68767 20.115 3.81549C20.2039 3.94331 20.258 4.09007 20.2724 4.24261C20.2868 4.39515 20.261 4.54869 20.1974 4.68945L15.765 14.5Z" fill="black"/>
<path fill-rule="evenodd" clip-rule="evenodd" d="M21.2502 11.725H13.8148L18.2472 1.91445C18.3108 1.77369 18.3366 1.62015 18.3222 1.46761C18.3078 1.31507 18.2537 1.16831 18.1648 1.04049C18.0759 0.912666 17.9549 0.807791 17.8127 0.735273C17.6706 0.662755 17.5116 0.624864 17.3502 0.625H7.60019C7.40924 0.624839 7.22245 0.677874 7.06299 0.777523C6.90353 0.877173 6.77842 1.01905 6.70319 1.18555L0.85319 14.1356C0.789588 14.2763 0.76382 14.4299 0.778198 14.5824C0.792576 14.7349 0.84665 14.8817 0.935568 15.0095C1.02449 15.1373 1.14546 15.2422 1.28765 15.3147C1.42983 15.3872 1.58876 15.4251 1.75019 15.425H6.57449L0.84539 28.9559C0.45539 29.8753 1.65854 30.6542 2.41904 29.9734L12.2158 21.1989L21.8839 13.353C22.0354 13.2301 22.1436 13.0661 22.1938 12.8831C22.244 12.7001 22.2339 12.5069 22.1649 12.3295C22.0958 12.1522 21.9711 11.9991 21.8076 11.891C21.644 11.7829 21.4495 11.725 21.2502 11.725V11.725ZM12.3367 13.575H18.6099L10.9113 19.8243L4.31054 25.7351L8.92229 14.8441C8.98158 14.7038 9.0037 14.5518 8.98671 14.4014C8.96973 14.2511 8.91416 14.107 8.82487 13.9818C8.73558 13.8565 8.6153 13.754 8.47454 13.683C8.33379 13.6121 8.17686 13.575 8.01749 13.575H3.22829L8.24369 2.475H15.8721L11.4397 12.2856C11.3761 12.4263 11.3504 12.5799 11.3647 12.7324C11.3791 12.8849 11.4332 13.0317 11.5221 13.1595C11.611 13.2873 11.732 13.3922 11.8742 13.4647C12.0164 13.5372 12.1753 13.5751 12.3367 13.575V13.575Z" fill="black"/>
</svg>
