<svg width="30" height="29" viewBox="0 0 30 29" fill="none" xmlns="http://www.w3.org/2000/svg">
<path d="M28.0935 10.276L24.5202 27.876C24.4642 28.1285 24.3029 28.3569 24.0642 28.5216C23.8256 28.6864 23.5246 28.7771 23.2135 28.778H6.78683C6.47568 28.7771 6.17472 28.6864 5.93609 28.5216C5.69745 28.3569 5.53617 28.1285 5.48016 27.876L1.90683 10.276C1.87605 10.1194 1.88671 9.95908 1.93809 9.80616C1.98946 9.65324 2.08034 9.5113 2.20447 9.39008C2.3286 9.26887 2.48305 9.17124 2.65722 9.10391C2.83139 9.03657 3.02116 9.00113 3.2135 9H26.7602C26.9547 8.99793 27.1475 9.03102 27.325 9.09696C27.5024 9.16289 27.6602 9.26007 27.7872 9.38167C27.9143 9.50327 28.0076 9.64634 28.0605 9.80084C28.1134 9.95534 28.1246 10.1175 28.0935 10.276ZM29.6668 5.7C29.6668 5.99174 29.5264 6.27152 29.2763 6.47781C29.0263 6.6841 28.6871 6.8 28.3335 6.8H1.66683C1.31321 6.8 0.974069 6.6841 0.724021 6.47781C0.473972 6.27152 0.333496 5.99174 0.333496 5.7C0.333496 5.40826 0.473972 5.12847 0.724021 4.92218C0.974069 4.71589 1.31321 4.6 1.66683 4.6H8.3335V1.3C8.3335 1.00826 8.47397 0.728469 8.72402 0.522179C8.97407 0.315889 9.31321 0.199997 9.66683 0.199997H20.3335C20.6871 0.199997 21.0263 0.315889 21.2763 0.522179C21.5264 0.728469 21.6668 1.00826 21.6668 1.3V4.6H28.3335C28.6871 4.6 29.0263 4.71589 29.2763 4.92218C29.5264 5.12847 29.6668 5.40826 29.6668 5.7ZM19.0002 4.6V2.4H11.0002V4.6H19.0002Z" fill="black"/>
</svg>
