<svg width="56" height="11" viewBox="0 0 56 11" fill="none" xmlns="http://www.w3.org/2000/svg">
<path d="M12.0234 6.03844C12.0234 5.13543 11.4075 4.51812 10.6925 4.51812C9.97746 4.51812 9.36109 5.13543 9.36109 6.03844C9.36109 6.93228 9.97746 7.55876 10.6925 7.55876C11.4075 7.55876 12.0234 6.93113 12.0234 6.03844ZM13.0598 6.03844C13.0598 7.48304 11.9969 8.54783 10.692 8.54783C9.38757 8.54783 8.32463 7.48304 8.32463 6.03844C8.32463 4.58353 9.38757 3.52906 10.6925 3.52906C11.9969 3.52906 13.0598 4.58353 13.0598 6.03844ZM17.1303 6.03844C17.1303 5.13543 16.5145 4.51812 15.7995 4.51812C15.0844 4.51812 14.4686 5.13543 14.4686 6.03844C14.4686 6.93228 15.0844 7.55876 15.7995 7.55876C16.5145 7.55876 17.1303 6.93113 17.1303 6.03844ZM18.1668 6.03844C18.1668 7.48304 17.1039 8.54783 15.7995 8.54783C14.4951 8.54783 13.4316 7.48304 13.4316 6.03844C13.4316 4.58467 14.4951 3.52906 15.7995 3.52906C17.1039 3.52906 18.1673 4.58353 18.1673 6.03844H18.1668ZM22.1511 6.04705C22.1511 5.16354 21.5966 4.51755 20.8914 4.51755C20.1758 4.51755 19.5771 5.16354 19.5771 6.04705C19.5771 6.92195 20.1758 7.55876 20.8909 7.55876C21.5966 7.55876 22.1511 6.92195 22.1511 6.04762V6.04705ZM23.0619 3.68051V8.18583C23.0619 10.0389 22.0338 10.7962 20.8187 10.7962C20.3771 10.8042 19.9431 10.6681 19.5711 10.405C19.1991 10.142 18.9055 9.76358 18.7271 9.31717L19.6291 8.91787C19.79 9.32635 20.1836 9.80827 20.8182 9.80827C21.5955 9.80827 22.0774 9.29767 22.0774 8.33728V7.97585H22.0411C21.8095 8.28049 21.3624 8.54669 20.7984 8.54669C19.6187 8.54669 18.5376 7.45378 18.5376 6.04762C18.5376 4.63057 19.6187 3.52906 20.7984 3.52906C21.3613 3.52906 21.8084 3.79468 22.0416 4.09014H22.0779V3.68166H23.0619V3.68051ZM24.6846 1.0386H23.6736V8.39351H24.6841L24.6846 1.0386ZM26.1474 5.96042L28.2567 5.02929C28.1409 4.71548 27.7914 4.49747 27.3812 4.49747C26.8541 4.49747 26.1209 4.992 26.1474 5.96042ZM28.6238 6.86286L29.4281 7.43312C29.2068 7.78108 28.9121 8.06422 28.5694 8.25804C28.2268 8.45187 27.8466 8.55055 27.4617 8.54554C26.1209 8.54554 25.1198 7.44402 25.1198 6.03615C25.1198 4.54394 26.1298 3.52676 27.3459 3.52676C28.5703 3.52676 29.1695 4.56287 29.3658 5.12281L29.4728 5.40794L26.3177 6.79746C26.5592 7.30117 26.9351 7.55762 27.4617 7.55762C27.9898 7.55762 28.3553 7.28224 28.6238 6.86343V6.86286ZM4.49816 5.38442V4.31962H7.87235C7.90506 4.50493 7.9222 4.72466 7.9222 4.96217C7.9222 5.76077 7.71709 6.74869 7.05502 7.45205C6.41113 8.16517 5.58862 8.54554 4.4992 8.54554C2.47925 8.54554 0.78125 6.79574 0.78125 4.64893C0.78125 2.50212 2.47925 0.752319 4.4992 0.752319C5.61666 0.752319 6.41217 1.21817 7.01037 1.82572L6.30417 2.57728C5.87525 2.14929 5.29419 1.81712 4.49816 1.81712C3.02344 1.81712 1.87015 3.08042 1.87015 4.64893C1.87015 6.21744 3.02344 7.48074 4.49816 7.48074C5.45465 7.48074 5.99936 7.07226 6.3483 6.70107C6.63182 6.39988 6.81772 5.97017 6.89146 5.38327L4.49816 5.38442ZM35.5389 6.84852C35.5389 7.42968 35.3457 7.89668 34.9599 8.24893C34.5678 8.59545 34.0927 8.76871 33.5329 8.76871C33.0344 8.76871 32.5957 8.60807 32.215 8.28622C31.8344 7.96495 31.5711 7.52549 31.4258 6.96899L32.1647 6.63567C32.215 6.83303 32.2846 7.0126 32.3744 7.17324C32.4638 7.33387 32.5676 7.47328 32.685 7.59089C32.808 7.70219 32.9425 7.79169 33.0879 7.85939C33.2333 7.92135 33.387 7.95233 33.5495 7.95233C33.9021 7.95233 34.1903 7.85365 34.4141 7.65572C34.6379 7.45148 34.7501 7.18241 34.7501 6.84852C34.7501 6.57027 34.6577 6.33218 34.4728 6.13483C34.2994 5.94321 33.9748 5.75733 33.4992 5.57833C33.0178 5.38671 32.7187 5.25706 32.6009 5.18821C31.9632 4.83022 31.6438 4.30126 31.6438 3.60249C31.6438 3.11427 31.8204 2.69718 32.173 2.35066C32.5313 2.00472 32.9706 1.83146 33.4909 1.83146C33.9499 1.83146 34.3471 1.96112 34.6826 2.22101C35.0186 2.47458 35.2424 2.79299 35.3545 3.17623L34.6327 3.51012C34.5647 3.26157 34.4225 3.0458 34.2293 2.89798C34.0335 2.73103 33.7931 2.64727 33.5075 2.64727C33.2053 2.64727 32.9508 2.74021 32.7442 2.92552C32.5365 3.09877 32.4326 3.32424 32.4326 3.60249C32.4326 3.83197 32.5141 4.02933 32.6767 4.19627C32.8558 4.36265 33.2447 4.56115 33.8435 4.79006C34.4531 5.01839 34.8872 5.30008 35.1442 5.63341C35.4075 5.96157 35.5389 6.3666 35.5389 6.84852V6.84852ZM36.3344 1.97948H37.1065V4.0758L37.0728 4.70687H37.1065C37.2239 4.4837 37.403 4.2984 37.644 4.15038C37.8773 4.00554 38.1402 3.92873 38.4078 3.92721C38.911 3.92721 39.2973 4.08785 39.5658 4.40912C39.8399 4.72466 39.977 5.17617 39.977 5.76307V8.62012H39.2049V5.93059C39.2049 5.11421 38.8777 4.7063 38.2229 4.7063C37.9093 4.7063 37.644 4.85145 37.4254 5.14232C37.2139 5.4232 37.1007 5.77868 37.1065 6.14401V8.62012H36.3344V1.97948ZM42.7307 8.76871C42.1263 8.76871 41.6283 8.53923 41.2362 8.08199C40.8447 7.62474 40.649 7.04644 40.649 6.34767C40.649 5.65521 40.839 5.08035 41.2196 4.62311C41.6003 4.15898 42.0868 3.92721 42.6803 3.92721C43.2899 3.92721 43.7744 4.14694 44.1322 4.58582C44.4962 5.0184 44.6779 5.62767 44.6779 6.4125L44.6696 6.50544H41.4377C41.4491 6.95064 41.5831 7.3092 41.8407 7.58114C42.0982 7.85308 42.4062 7.98962 42.7639 7.98962C43.2567 7.98962 43.6425 7.71768 43.9224 7.17324L44.611 7.54442C44.4345 7.91791 44.167 8.22948 43.8388 8.44399C43.5138 8.66028 43.1446 8.76871 42.7307 8.76871V8.76871ZM41.4964 5.80093H43.8554C43.8473 5.6515 43.8119 5.50543 43.7513 5.37154C43.6907 5.23764 43.6062 5.11868 43.5028 5.02184C43.2957 4.81129 43.0158 4.7063 42.6632 4.7063C42.3724 4.7063 42.1206 4.80498 41.9077 5.00291C41.701 5.20083 41.5639 5.46703 41.4964 5.80036V5.80093ZM47.2722 8.76871C46.6678 8.76871 46.1693 8.53923 45.7778 8.08199C45.3862 7.62474 45.1899 7.04644 45.1899 6.34767C45.1899 5.65521 45.3805 5.08035 45.7611 4.62311C46.1418 4.15898 46.6283 3.92721 47.2218 3.92721C47.8314 3.92721 48.3154 4.14694 48.6737 4.58582C49.0377 5.0184 49.2194 5.62767 49.2194 6.4125L49.2111 6.50544H45.9792C45.9907 6.95064 46.1246 7.3092 46.3822 7.58114C46.6397 7.85308 46.9471 7.98962 47.3054 7.98962C47.7982 7.98962 48.184 7.71768 48.4639 7.17324L49.1525 7.54442C48.9759 7.91806 48.7083 8.22966 48.3798 8.44399C48.0553 8.66028 47.6861 8.76871 47.2722 8.76871V8.76871ZM46.0379 5.80093H48.3969C48.3888 5.6515 48.3534 5.50543 48.2928 5.37154C48.2322 5.23764 48.1477 5.11868 48.0443 5.02184C47.8372 4.81129 47.5573 4.7063 47.2047 4.7063C46.9139 4.7063 46.6621 4.80498 46.4492 5.00291C46.2425 5.20083 46.1049 5.46703 46.0379 5.80036V5.80093ZM51.431 8.69413C51.0956 8.69413 50.8157 8.57939 50.5919 8.35105C50.3733 8.12214 50.2616 7.80374 50.2559 7.39583V4.85431H49.5341V4.0758H50.2559V2.68456H51.0281V4.0758H52.0354V4.85489H51.0281V7.11759C51.0281 7.4205 51.0815 7.62818 51.188 7.73891C51.2939 7.8439 51.4144 7.89668 51.5489 7.89668C51.6102 7.89668 51.6688 7.89094 51.7249 7.87832C51.7867 7.85939 51.8423 7.83816 51.8926 7.81349L52.1362 8.57365C51.9347 8.65397 51.7 8.69413 51.431 8.69413V8.69413ZM56 7.35854C56 7.7544 55.8432 8.08829 55.5301 8.36023C55.2165 8.63217 54.8218 8.76871 54.3462 8.76871C53.9323 8.76871 53.5683 8.6511 53.2552 8.41588C52.9485 8.18451 52.714 7.8541 52.5838 7.46984L53.2718 7.1457C53.3725 7.41763 53.5179 7.63105 53.7085 7.78538C53.9043 7.93397 54.1166 8.00798 54.3462 8.00798C54.5928 8.00798 54.7969 7.94946 54.9589 7.83185C55.1271 7.71424 55.2107 7.5754 55.2107 7.41419C55.2107 7.1239 55.0093 6.91048 54.6063 6.77451L53.9017 6.57945C53.101 6.35742 52.7011 5.93059 52.7011 5.30008C52.7011 4.88587 52.8522 4.55484 53.1544 4.30757C53.4624 4.054 53.8539 3.92721 54.3295 3.92721C54.693 3.92721 55.0207 4.02302 55.3115 4.21463C55.6085 4.40625 55.8152 4.66327 55.933 4.98455L55.2445 5.30008C55.1653 5.10745 55.029 4.95042 54.8582 4.85489C54.6795 4.74207 54.4766 4.6844 54.2709 4.68794C54.0694 4.68794 53.8876 4.74359 53.7251 4.85431C53.5683 4.96619 53.4899 5.10216 53.4899 5.26279C53.4899 5.52268 53.7111 5.70799 54.1535 5.81929L54.7746 5.99542C55.5914 6.21801 56 6.67239 56 7.35854V7.35854Z" fill="#787879"/>
</svg>
